<svg xmlns="http://www.w3.org/2000/svg" viewBox="0 0 32 32">
  <path fill="#41A5EE" d="M28.806 3H9.705a1.192 1.192 0 0 0-1.193 1.191V9.5l11.069 3.25L30 9.5V4.191A1.192 1.192 0 0 0 28.806 3z"/>
  <path fill="#2B7CD3" d="M30 9.5H8.512v6.5l11.069 1.95L30 16z"/>
  <path fill="#185ABD" d="M8.512 16v6.5l10.418 1.3L30 22.5V16z"/>
  <path fill="#103F91" d="M9.705 29h19.1A1.192 1.192 0 0 0 30 27.809V22.5H8.512v5.309A1.192 1.192 0 0 0 9.705 29z"/>
  <path d="M16.434 8.2H8.512v16.25h7.922a1.2 1.2 0 0 0 1.194-1.191V9.391A1.2 1.2 0 0 0 16.434 8.2z" opacity=".1"/>
  <path d="M15.783 8.85H8.512V25.1h7.271a1.2 1.2 0 0 0 1.194-1.191V10.041a1.2 1.2 0 0 0-1.194-1.191z" opacity=".2"/>
  <path d="M15.783 8.85H8.512V23.8h7.271a1.2 1.2 0 0 0 1.194-1.191V10.041a1.2 1.2 0 0 0-1.194-1.191z" opacity=".2"/>
  <path d="M15.132 8.85h-6.62V23.8h6.62a1.2 1.2 0 0 0 1.194-1.191V10.041a1.2 1.2 0 0 0-1.194-1.191z" opacity=".2"/>
  <linearGradient id="word-a" x1="4.494" y1="-2092.086" x2="13.832" y2="-2075.914" gradientTransform="translate(0 2100)" gradientUnits="userSpaceOnUse">
    <stop offset="0" stop-color="#2368c4"/>
    <stop offset=".5" stop-color="#1a5dbe"/>
    <stop offset="1" stop-color="#1146ac"/>
  </linearGradient>
  <path fill="url(#word-a)" d="M1.194 8.85h13.938a1.194 1.194 0 0 1 1.194 1.191v13.918a1.194 1.194 0 0 1-1.194 1.191H1.194A1.194 1.194 0 0 1 0 23.959V10.041A1.194 1.194 0 0 1 1.194 8.85z"/>
  <path fill="#fff" d="M4.193 19.977 2.883 13h1.3l.762 4.355c.07.378.121.744.155 1.1h.018c.025-.312.089-.677.193-1.1L6.2 13h1.212l.848 4.3c.085.418.146.8.183 1.154h.013c.028-.328.082-.69.161-1.084L9.4 13h1.236l-1.4 6.977H7.963l-.856-4.186a10.2 10.2 0 0 1-.161-1.023h-.013a9.763 9.763 0 0 1-.18 1.023l-.862 4.186z"/>
</svg>
